<?xml version="1.0" encoding="UTF-8" standalone="no"?><!DOCTYPE svg PUBLIC "-//W3C//DTD SVG 1.1//EN" "http://www.w3.org/Graphics/SVG/1.1/DTD/svg11.dtd"><!-- Generated by graphviz version 2.40.1 (20161225.0304)
 --><!-- Title: ComponentDiagram Pages: 1 --><svg xmlns="http://www.w3.org/2000/svg" xmlns:xlink="http://www.w3.org/1999/xlink" width="1514pt" height="157pt" viewBox="0.00 0.00 1513.81 157.00">
<g id="graph0" class="graph" transform="scale(1 1) rotate(0) translate(4 153)">
<title>ComponentDiagram</title>
<polygon fill="#ffffff" stroke="transparent" points="-4,4 -4,-153 1509.8062,-153 1509.8062,4 -4,4"/>
<g id="clust1" class="cluster">
<title>cluster_client</title>
<polygon fill="none" stroke="#00ff00" points="8,-8 8,-141 630.7716,-141 630.7716,-8 8,-8"/>
<text text-anchor="middle" x="319.3858" y="-124.4" font-family="Times,serif" font-size="14.00" fill="#000000">Component: Client</text>
</g>
<g id="clust2" class="cluster">
<title>cluster_server</title>
<polygon fill="none" stroke="#0000ff" points="650.7716,-8 650.7716,-141 1313.1954,-141 1313.1954,-8 650.7716,-8"/>
<text text-anchor="middle" x="981.9835" y="-124.4" font-family="Times,serif" font-size="14.00" fill="#000000">Component: Server</text>
</g>
<g id="clust3" class="cluster">
<title>cluster_database</title>
<polygon fill="none" stroke="#ffff00" points="1333.1954,-63 1333.1954,-141 1497.8062,-141 1497.8062,-63 1333.1954,-63"/>
<text text-anchor="middle" x="1415.5008" y="-124.4" font-family="Times,serif" font-size="14.00" fill="#000000">Component: Database</text>
</g>
<!-- WebBrowser -->
<g id="node1" class="node">
<title>WebBrowser</title>
<polygon fill="#d3d3d3" stroke="#000000" points="16,-44 16,-80 182.0758,-80 182.0758,-44 16,-44"/>
<text text-anchor="middle" x="99.0379" y="-57.9" font-family="Times,serif" font-size="14.00" fill="#000000">Component: Web Browser</text>
</g>
<!-- TravelerPortfolio -->
<g id="node3" class="node">
<title>TravelerPortfolio</title>
<polygon fill="#d3d3d3" stroke="#000000" points="218.0758,-44 218.0758,-80 407.4826,-80 407.4826,-44 218.0758,-44"/>
<text text-anchor="middle" x="312.7792" y="-57.9" font-family="Times,serif" font-size="14.00" fill="#000000">Component: Traveler Portfolio</text>
</g>
<!-- WebBrowser&#45;&gt;TravelerPortfolio -->
<g id="edge1" class="edge">
<title>WebBrowser-&gt;TravelerPortfolio</title>
<path fill="none" stroke="#000000" d="M182.2879,-62C190.7129,-62 199.344,-62 207.9573,-62"/>
<polygon fill="#000000" stroke="#000000" points="218.0471,-62 208.0471,-66.5001 213.0471,-62 208.0471,-62.0001 208.0471,-62.0001 208.0471,-62.0001 213.0471,-62 208.0471,-57.5001 218.0471,-62 218.0471,-62"/>
</g>
<!-- ClientSession -->
<g id="node2" class="node">
<title>ClientSession</title>
<polygon fill="#d3d3d3" stroke="#000000" points="448.5156,-17 448.5156,-53 617.7386,-53 617.7386,-17 448.5156,-17"/>
<text text-anchor="middle" x="533.1271" y="-30.9" font-family="Times,serif" font-size="14.00" fill="#000000">Component: Client Session</text>
</g>
<!-- AuthenticationServer -->
<g id="node5" class="node">
<title>AuthenticationServer</title>
<polygon fill="#d3d3d3" stroke="#000000" points="658.7716,-17 658.7716,-53 870.731,-53 870.731,-17 658.7716,-17"/>
<text text-anchor="middle" x="764.7513" y="-30.9" font-family="Times,serif" font-size="14.00" fill="#000000">Component: Authentication Server</text>
</g>
<!-- ClientSession&#45;&gt;AuthenticationServer -->
<g id="edge4" class="edge">
<title>ClientSession-&gt;AuthenticationServer</title>
<path fill="none" stroke="#000000" d="M618.0602,-35C627.9373,-35 638.1376,-35 648.3441,-35"/>
<polygon fill="#000000" stroke="#000000" points="658.5409,-35 648.541,-39.5001 653.5409,-35 648.5409,-35.0001 648.5409,-35.0001 648.5409,-35.0001 653.5409,-35 648.5409,-30.5001 658.5409,-35 658.5409,-35"/>
</g>
<!-- TravelerPortfolio&#45;&gt;ClientSession -->
<g id="edge2" class="edge">
<title>TravelerPortfolio-&gt;ClientSession</title>
<path fill="none" stroke="#000000" d="M407.5053,-50.3929C417.6534,-49.1494 427.9798,-47.8841 438.131,-46.6402"/>
<polygon fill="#000000" stroke="#000000" points="448.2106,-45.4051 438.8322,-51.088 443.2478,-46.0133 438.2849,-46.6214 438.2849,-46.6214 438.2849,-46.6214 443.2478,-46.0133 437.7375,-42.1548 448.2106,-45.4051 448.2106,-45.4051"/>
</g>
<!-- GraphicLibrary -->
<g id="node4" class="node">
<title>GraphicLibrary</title>
<polygon fill="#d3d3d3" stroke="#000000" points="443.4826,-72 443.4826,-108 622.7716,-108 622.7716,-72 443.4826,-72"/>
<text text-anchor="middle" x="533.1271" y="-85.9" font-family="Times,serif" font-size="14.00" fill="#000000">Component: Graphic Library</text>
</g>
<!-- TravelerPortfolio&#45;&gt;GraphicLibrary -->
<g id="edge3" class="edge">
<title>TravelerPortfolio-&gt;GraphicLibrary</title>
<path fill="none" stroke="#000000" d="M407.5053,-74.037C416.0568,-75.1237 424.735,-76.2264 433.3282,-77.3184"/>
<polygon fill="#000000" stroke="#000000" points="443.3642,-78.5937 432.8766,-81.7971 438.404,-77.9633 433.4439,-77.333 433.4439,-77.333 433.4439,-77.333 438.404,-77.9633 434.0112,-72.8689 443.3642,-78.5937 443.3642,-78.5937"/>
</g>
<!-- ServerSession -->
<g id="node6" class="node">
<title>ServerSession</title>
<polygon fill="#d3d3d3" stroke="#000000" points="906.731,-17 906.731,-53 1078.264,-53 1078.264,-17 906.731,-17"/>
<text text-anchor="middle" x="992.4975" y="-30.9" font-family="Times,serif" font-size="14.00" fill="#000000">Component: Server Session</text>
</g>
<!-- AuthenticationServer&#45;&gt;ServerSession -->
<g id="edge5" class="edge">
<title>AuthenticationServer-&gt;ServerSession</title>
<path fill="none" stroke="#000000" d="M870.9565,-35C879.4482,-35 887.9971,-35 896.413,-35"/>
<polygon fill="#000000" stroke="#000000" points="906.5999,-35 896.6,-39.5001 901.5999,-35 896.5999,-35.0001 896.5999,-35.0001 896.5999,-35.0001 901.5999,-35 896.5999,-30.5001 906.5999,-35 906.5999,-35"/>
</g>
<!-- TravelerDatabase -->
<g id="node7" class="node">
<title>TravelerDatabase</title>
<polygon fill="#d3d3d3" stroke="#000000" points="1114.264,-17 1114.264,-53 1305.1954,-53 1305.1954,-17 1114.264,-17"/>
<text text-anchor="middle" x="1209.7297" y="-30.9" font-family="Times,serif" font-size="14.00" fill="#000000">Component: Traveler Database</text>
</g>
<!-- ServerSession&#45;&gt;TravelerDatabase -->
<g id="edge6" class="edge">
<title>ServerSession-&gt;TravelerDatabase</title>
<path fill="none" stroke="#000000" d="M1078.3534,-35C1086.7921,-35 1095.4227,-35 1104.0289,-35"/>
<polygon fill="#000000" stroke="#000000" points="1114.1077,-35 1104.1077,-39.5001 1109.1077,-35 1104.1077,-35.0001 1104.1077,-35.0001 1104.1077,-35.0001 1109.1077,-35 1104.1076,-30.5001 1114.1077,-35 1114.1077,-35"/>
</g>
<!-- MongooseODM -->
<g id="node8" class="node">
<title>MongooseODM</title>
<polygon fill="#d3d3d3" stroke="#000000" points="1117.7374,-72 1117.7374,-108 1301.722,-108 1301.722,-72 1117.7374,-72"/>
<text text-anchor="middle" x="1209.7297" y="-85.9" font-family="Times,serif" font-size="14.00" fill="#000000">Component: Mongoose ODM</text>
</g>
<!-- ServerSession&#45;&gt;MongooseODM -->
<g id="edge7" class="edge">
<title>ServerSession-&gt;MongooseODM</title>
<path fill="none" stroke="#000000" d="M1063.6274,-53.0091C1084.4445,-58.2796 1107.3555,-64.0804 1128.7368,-69.4938"/>
<polygon fill="#000000" stroke="#000000" points="1138.4399,-71.9505 1127.6413,-73.8584 1133.5929,-70.7232 1128.7458,-69.496 1128.7458,-69.496 1128.7458,-69.496 1133.5929,-70.7232 1129.8503,-65.1336 1138.4399,-71.9505 1138.4399,-71.9505"/>
</g>
<!-- MongoDB -->
<g id="node9" class="node">
<title>MongoDB</title>
<polygon fill="#d3d3d3" stroke="#000000" points="1341.1954,-72 1341.1954,-108 1489.8062,-108 1489.8062,-72 1341.1954,-72"/>
<text text-anchor="middle" x="1415.5008" y="-85.9" font-family="Times,serif" font-size="14.00" fill="#000000">Component: MongoDB</text>
</g>
<!-- MongooseODM&#45;&gt;MongoDB -->
<g id="edge8" class="edge">
<title>MongooseODM-&gt;MongoDB</title>
<path fill="none" stroke="#000000" d="M1301.7819,-90C1311.4477,-90 1321.2424,-90 1330.8197,-90"/>
<polygon fill="#000000" stroke="#000000" points="1341.1105,-90 1331.1105,-94.5001 1336.1105,-90 1331.1105,-90.0001 1331.1105,-90.0001 1331.1105,-90.0001 1336.1105,-90 1331.1104,-85.5001 1341.1105,-90 1341.1105,-90"/>
</g>
</g>
</svg>