<?xml version="1.0" encoding="UTF-8" standalone="no"?><!DOCTYPE svg PUBLIC "-//W3C//DTD SVG 1.1//EN" "http://www.w3.org/Graphics/SVG/1.1/DTD/svg11.dtd"><!-- Generated by graphviz version 2.40.1 (20161225.0304)
 --><!-- Title: ClassDiagram Pages: 1 --><svg xmlns="http://www.w3.org/2000/svg" xmlns:xlink="http://www.w3.org/1999/xlink" width="1080pt" height="197pt" viewBox="0.00 0.00 1080.15 197.20">
<g id="graph0" class="graph" transform="scale(1 1) rotate(0) translate(4 193.2)">
<title>ClassDiagram</title>
<polygon fill="#ffffff" stroke="transparent" points="-4,4 -4,-193.2 1076.1466,-193.2 1076.1466,4 -4,4"/>
<!-- User -->
<g id="node1" class="node">
<title>User</title>
<polygon fill="#ddeeff" stroke="#000000" points="0,-121.5 0,-188.7 372.3616,-188.7 372.3616,-121.5 0,-121.5"/>
<text text-anchor="middle" x="186.1808" y="-173.9" font-family="Times,serif" font-size="12.00" fill="#000000">User</text>
<polyline fill="none" stroke="#000000" points="0,-166.3 372.3616,-166.3 "/>
<text text-anchor="middle" x="186.1808" y="-151.5" font-family="Times,serif" font-size="12.00" fill="#000000">+ userId: String\l+ username: String\l+ email: String\l+ password: String\l</text>
<polyline fill="none" stroke="#000000" points="0,-143.9 372.3616,-143.9 "/>
<text text-anchor="middle" x="186.1808" y="-129.1" font-family="Times,serif" font-size="12.00" fill="#000000">+ register()\l+ login()\l+ getBookings()\l</text>
</g>
<!-- Booking -->
<g id="node3" class="node">
<title>Booking</title>
<polygon fill="#ffffdd" stroke="#000000" points="161.9042,-.5 161.9042,-67.7 754.4574,-67.7 754.4574,-.5 161.9042,-.5"/>
<text text-anchor="middle" x="458.1808" y="-52.9" font-family="Times,serif" font-size="12.00" fill="#000000">Booking</text>
<polyline fill="none" stroke="#000000" points="161.9042,-45.3 754.4574,-45.3 "/>
<text text-anchor="middle" x="458.1808" y="-30.5" font-family="Times,serif" font-size="12.00" fill="#000000">+ bookingId: String\l+ userId: String\l+ tripId: String\l+ bookingDate: Date\l+ status: String\l+ paymentDetails: String\l</text>
<polyline fill="none" stroke="#000000" points="161.9042,-22.9 754.4574,-22.9 "/>
<text text-anchor="middle" x="458.1808" y="-8.1" font-family="Times,serif" font-size="12.00" fill="#000000">+ createBooking()\l+ editBooking()\l+ cancelBooking()\l</text>
</g>
<!-- User&#45;&gt;Booking -->
<g id="edge1" class="edge">
<title>User-&gt;Booking</title>
<path fill="none" stroke="#000000" d="M261.948,-121.3948C296.4352,-106.053 337.3981,-87.8306 372.9545,-72.0132"/>
<polygon fill="#000000" stroke="#000000" points="374.6345,-75.0966 382.3487,-67.8341 371.7893,-68.7008 374.6345,-75.0966"/>
<text text-anchor="middle" x="367.7604" y="-90.4" font-family="Times,serif" font-size="14.00" fill="#000000">1 → Many</text>
</g>
<!-- Trip -->
<g id="node2" class="node">
<title>Trip</title>
<polygon fill="#ddffdd" stroke="#000000" points="390.215,-121.5 390.215,-188.7 1072.1466,-188.7 1072.1466,-121.5 390.215,-121.5"/>
<text text-anchor="middle" x="731.1808" y="-173.9" font-family="Times,serif" font-size="12.00" fill="#000000">Trip</text>
<polyline fill="none" stroke="#000000" points="390.215,-166.3 1072.1466,-166.3 "/>
<text text-anchor="middle" x="731.1808" y="-151.5" font-family="Times,serif" font-size="12.00" fill="#000000">+ tripId: String\l+ name: String\l+ destination: String\l+ price: Number\l+ availability: Boolean\l+ itinerary: Array\l+ location: GeoJSON\l</text>
<polyline fill="none" stroke="#000000" points="390.215,-143.9 1072.1466,-143.9 "/>
<text text-anchor="middle" x="731.1808" y="-129.1" font-family="Times,serif" font-size="12.00" fill="#000000">+ addTrip()\l+ editTrip()\l+ getTripDetails(tripId)\l</text>
</g>
<!-- Trip&#45;&gt;Booking -->
<g id="edge2" class="edge">
<title>Trip-&gt;Booking</title>
<path fill="none" stroke="#000000" d="M655.1351,-121.3948C620.5211,-106.053 579.4076,-87.8306 543.7204,-72.0132"/>
<polygon fill="#000000" stroke="#000000" points="544.8522,-68.6865 534.2917,-67.8341 542.0157,-75.0861 544.8522,-68.6865"/>
<text text-anchor="middle" x="639.7604" y="-90.4" font-family="Times,serif" font-size="14.00" fill="#000000">1 → Many</text>
</g>
</g>
</svg>